<svg width="200px" height="200px" viewBox="0 0 32 32" xmlns="http://www.w3.org/2000/svg" xmlns:xlink="http://www.w3.org/1999/xlink" aria-hidden="true" role="img" class="iconify iconify--noto" preserveAspectRatio="xMidYMid meet" version="1.1"><path d="m27.637 29.352 -8.407 -13.43 7.433 -11.205a0.558 0.558 0 0 0 0.025 -0.575 0.555 0.555 0 0 0 -0.492 -0.295h-6.111a0.563 0.563 0 0 0 -0.465 0.25L12.873 14.27V4.41c0 -0.31 -0.253 -0.56 -0.56 -0.56H6.838a0.56 0.56 0 0 0 -0.56 0.56v25.24c0 0.31 0.25 0.56 0.56 0.56h5.475c0.307 0 0.56 -0.25 0.56 -0.56V17.637l7.705 12.31a0.561 0.561 0 0 0 0.475 0.263h6.11a0.563 0.563 0 0 0 0.475 -0.858z" fill="#483aa7"></path></svg>